PathFileType	4	(X/Y/Z)	25_coords_data.trc
DataRate	CameraRate	NumFrames	NumMarkers	Units	OrigDataRate	OrigDataStartFrame	OrigNumFrames
30.0	30.0	9	21	m	30.0	41	60
Frame#	Time	THUMB_TIP	THUMB_IP	THUMB_MCP	THUMB_CMC	INDEX_TIP	INDEX_DIP	INDEX_PIP	INDEX_MCP	MIDDLE_TIP	MIDDLE_DIP	MIDDLE_PIP	MIDDLE_MCP	RING_TIP	RING_DIP	RING_PIP	RING_MCP	PINKY_TIP	PINKY_DIP	PINKY_PIP	PINKY_MCP	WRIST
X1	Y1	Z1	X2	Y2	Z2	X3	Y3	Z3	X4	Y4	Z4	X5	Y5	Z5	X6	Y6	Z6	X7	Y7	Z7	X8	Y8	Z8	X9	Y9	Z9	X10	Y10	Z10	X11	Y11	Z11	X12	Y12	Z12	X13	Y13	Z13	X14	Y14	Z14	X15	Y15	Z15	X16	Y16	Z16	X17	Y17	Z17	X18	Y18	Z18	X19	Y19	Z19	X20	Y20	Z20	X21	Y21	Z21
39	1.3333333333333275	0.5193557842773215	-0.02728577898047657	-0.16258938561417902	0.5110595872753287	-0.028831543152560535	-0.14121688626505213	0.49641452134401126	-0.032108669494326336	-0.11394781061501458	0.4825490973197617	-0.0267489338214687	-0.07188936021387804	0.5901033665956181	0.02468443967063516	-0.1394675310326653	0.5723031189052323	0.024846558870608937	-0.1361321300783701	0.5479283949186543	0.02399841209316378	-0.13003595827780146	0.5117521203935045	0.011928101818071468	-0.11108283543896569	0.5960762511526236	0.04134159971163809	-0.11494462160526797	0.5781360985720294	0.04377703616254036	-0.11447603364275294	0.5492660154553755	0.044732886000030225	-0.11060121726959826	0.5124484901948438	0.025826116157767087	-0.09377410198438652	0.591396806137964	0.05016666081067189	-0.09519226697854821	0.5735096605669526	0.05111678948209719	-0.09315578009442915	0.54891198881915	0.05004166511014041	-0.08941697932784887	0.515326285894995	0.03195733107137366	-0.07601256753677388	0.5828044889778123	0.05225442016631088	-0.07150764859216063	0.5660518709036992	0.0507732616401414	-0.06832080735305601	0.5459323077745719	0.04578806816079961	-0.06497969309781304	0.5155827912119483	0.027849992344436192	-0.057362887243556426	0.4622830810018609	-0.023011742144276925	-0.051989820119430985
40	1.3666666666666607	0.5207660968154724	-0.027579097899075533	-0.16187814437837655	0.5121178708086342	-0.029048114184197615	-0.14064020243268205	0.49702496006191366	-0.03219965192497587	-0.11360149212579096	0.48274001514623643	-0.026708198813352402	-0.07170072493139568	0.5895955102056628	0.02846630181324361	-0.1411476929217632	0.5720648651081917	0.027172329924012417	-0.13678855089420905	0.5480320464097624	0.0248807575534159	-0.1297755519295185	0.5122413408423001	0.011973261442123073	-0.11064290880003447	0.5957904180097078	0.04634152251731283	-0.1161367202243665	0.5777315103993791	0.04698413529014711	-0.114927214231905	0.5489769808723052	0.045793123391144386	-0.1103263368880637	0.5127856461532667	0.025799320520538238	-0.093397572638247	0.590820845111915	0.054801901014861154	-0.09558665749992201	0.5729780821422717	0.05404140662597812	-0.09312546715912995	0.5486193818592398	0.05095101748892705	-0.08896816099972638	0.5155284509864042	0.03192434480949802	-0.07563786262650507	0.5818840375976054	0.05609153027760572	-0.07100565602925102	0.5654049595367472	0.052825824479294625	-0.06772310337879484	0.5457314439644858	0.04633777119180793	-0.06430696980899409	0.5156692952394768	0.02779602892143962	-0.05700255616964656	0.46228308100186094	-0.023011742144276925	-0.051989820119430985
41	1.3999999999999937	0.5217921966199106	-0.02764798499701948	-0.16134303750085954	0.51289858301301	-0.02907889520533824	-0.14020406560090948	0.49750139213359496	-0.03217892962535429	-0.11333147176224978	0.48289868355551635	-0.026655616838485052	-0.07154458484730808	0.58922408817133	0.031023387948662995	-0.141841456445285	0.5719584553469206	0.028713995652424718	-0.13688518462114596	0.5481620017332474	0.025535013152357178	-0.12942645157346544	0.5125715437608687	0.012095202652800063	-0.11028678362826982	0.5955159120864784	0.04961285459451026	-0.11666916254468163	0.5775011446077348	0.04894657844504502	-0.11493013155603893	0.5488967048783957	0.04639680646586142	-0.10996080155846555	0.5129914406789711	0.02585011423085326	-0.09308497974234764	0.5903822445808334	0.057690989101709444	-0.09556086500880256	0.5726679395862255	0.05571319541809705	-0.09286054452725345	0.5485263441694853	0.05142225536124467	-0.08850724886041317	0.5156370318117711	0.03196059326109768	-0.07530657937222374	0.5812091504841759	0.05847272753023747	-0.07049255201009241	0.5650399904153866	0.053952171540336824	-0.06715746037536341	0.5456911216218374	0.046559957665135876	-0.06372402631697394	0.5157017878993502	0.027790000413196236	-0.05670889847482785	0.46228308100186094	-0.023011742144276925	-0.051989820119430985
42	1.4333333333333271	0.5223793029155916	-0.027272259647150077	-0.1610539896259422	0.5133597929744527	-0.02876617562260131	-0.13997279764161674	0.49779479546401434	-0.03196445376947066	-0.1132086075848393	0.4829713164529796	-0.02658640028967152	-0.07148054735221121	0.5890155335757272	0.03252120545946324	-0.14181054815228722	0.5718856566737197	0.02969828189167123	-0.13665318256000292	0.5481768508342815	0.026116844536426154	-0.12909833874042087	0.5126589390178046	0.012347521199156497	-0.11005838682265878	0.5954237336540399	0.05120024757301822	-0.11659201376739226	0.5774745843847509	0.049808194260424266	-0.11461964765440102	0.5489475966501819	0.04667607096074966	-0.10953926140654657	0.5130177783700482	0.026042815462490765	-0.09282205928118625	0.5902239528178634	0.058907459660180295	-0.09523310847195743	0.5726011742867696	0.05630993364478698	-0.09245992700595573	0.5485423357217432	0.0516095594492475	-0.0880714479614686	0.5156309732808959	0.03209130001310201	-0.07501003131278483	0.5809023934384364	0.05949721262600827	-0.07006457663889731	0.5649273379830404	0.05435073790262779	-0.06670133398951428	0.5457124299004352	0.04660870725853461	-0.0632866176201865	0.5156811074258831	0.027833549215225184	-0.05646777887167398	0.46228308100186094	-0.023011742144276925	-0.051989820119430985
43	1.4666666666666603	0.5225636392881914	-0.026544207412416143	-0.1609698840290249	0.5135130384475123	-0.028199069230872453	-0.13991405213416697	0.49789304024898473	-0.03161775664978694	-0.11320921675534923	0.48298944711975217	-0.026499844578838694	-0.0714769763665043	0.5889636740011717	0.03319138933920096	-0.1413217348002206	0.5718234202642772	0.030274482406023817	-0.1362518870926399	0.5480707216617162	0.026658548560391182	-0.12885295713487566	0.51257426526898	0.012660209030182057	-0.10994041716913949	0.5954890415873066	0.05145035744532489	-0.11607821677318231	0.5775520287989832	0.04990398243623695	-0.11411040159822705	0.5489972859736034	0.046813466404983184	-0.1091621773877659	0.5129013323497045	0.02631143206519604	-0.09264259383031725	0.5903115599802762	0.05882369734007353	-0.09476782047070031	0.5726933940803621	0.056164068077647955	-0.09202435505091511	0.5485860770571803	0.05163530596131516	-0.08772231383336726	0.5155221860836053	0.03228445228795995	-0.07479774769751757	0.5809267390470739	0.05949209694977531	-0.06971075146184247	0.5649742784326681	0.054269383551664996	-0.06635780274362024	0.5457154121884801	0.04661328994726888	-0.06299739790056913	0.5155986236346549	0.027935416815807135	-0.05628922724910168	0.46228308100186094	-0.023011742144276925	-0.051989820119430985
44	1.4999999999999936	0.5225216360706433	-0.025701925142917026	-0.16099876095862165	0.5134887166057872	-0.027538256641563286	-0.13995038210017985	0.4978948671294234	-0.031237363563807352	-0.11326764486266383	0.4829772079322382	-0.02641018064518641	-0.07150579924795464	0.5890142625032082	0.03332621428766047	-0.1406638870960234	0.5717862503294803	0.03055977371388885	-0.13581183566454924	0.5479274503206553	0.02711617044706971	-0.12867677493042495	0.5124347514904486	0.012952515641809659	-0.10988062356091066	0.5956306646039442	0.05097170736007106	-0.11538368780611763	0.5776632397359428	0.04962330375151003	-0.11355244469796766	0.5490308168498155	0.0469024827506348	-0.1088417077332059	0.5127529071904834	0.02656366986046077	-0.0925201305432456	0.5904781226099407	0.058140421657526864	-0.09423892090585628	0.5727994636692151	0.055788853360152046	-0.09160545463489622	0.5485950423557387	0.05167213638378976	-0.08743668872443	0.5153924716566682	0.0324726835077378	-0.07464250480229206	0.5811302711857658	0.058973714051265835	-0.0693264704926656	0.5650884074482452	0.05400543951411263	-0.06601363847907116	0.5457084650763815	0.04662194542971032	-0.06274043396837636	0.5154810425848082	0.02806620176716379	-0.056192857497206594	0.4622830810018609	-0.023011742144276925	-0.051989820119430985
45	1.5333333333333266	0.5224394776214218	-0.02490458888743219	-0.16103184058405806	0.5134291912704043	-0.02693367646399547	-0.13999146170250487	0.49787308475930875	-0.030894577073611207	-0.11332427556342761	0.48296834609724065	-0.02634107245179873	-0.07152709430590043	0.58916878347195	0.033160840464453334	-0.13992011836669838	0.5718301127462209	0.030653282541248883	-0.1353285335938209	0.5478552293964818	0.027444081834239742	-0.12847902031267922	0.5123188380019521	0.013200938145396468	-0.1098260356047629	0.5957964280285002	0.05029070683891779	-0.11462958999211703	0.5777886561505425	0.04929035725882325	-0.11298051367216122	0.5490819524327102	0.0469866899881205	-0.10850526744848932	0.5126310427028204	0.02678879183167382	-0.09239551850801109	0.5906419648387208	0.0573136022455083	-0.09370392621621204	0.5728945699383664	0.055375643422309384	-0.09119907295694452	0.5485894696734674	0.05172364994309531	-0.08718596646184806	0.5152835011338486	0.032639091793317365	-0.07448900092414279	0.5813924473862727	0.058275541476923154	-0.06885310235401443	0.5652236945640965	0.053673383691668186	-0.06562950562132819	0.5456945203515395	0.046640300527627465	-0.06247369910265721	0.5153747575254457	0.028187005123768705	-0.056065007979865356	0.46228308100186094	-0.023011742144276925	-0.051989820119430985
46	1.5666666666666598	0.5222505552848966	-0.024122906855630233	-0.1611247440746385	0.5132910088136422	-0.026329589727093983	-0.14008057438956378	0.49781057407778945	-0.030544650765745307	-0.11340831537707197	0.4829403896865082	-0.026257660723258858	-0.07157066089519504	0.5892733280818732	0.032916872831075805	-0.1393151716712684	0.5718437369007849	0.030650305346010875	-0.13494801892654096	0.5477666716368368	0.02768600474908156	-0.12835122552014866	0.5121856303231884	0.013402607090485574	-0.10981450131216441	0.5958474361695214	0.049776744339510404	-0.11408972657863514	0.5778116320636995	0.04908191891436631	-0.11259741699782111	0.5490518854222566	0.047102576251462525	-0.10831154185465275	0.5125145697822032	0.02694763119437249	-0.09234436688333125	0.5906646008114167	0.056696649713970815	-0.09343723856727115	0.572869952699018	0.05509860681813916	-0.09102959294156299	0.5484923124118222	0.05182240923825532	-0.08713380515914315	0.5151648957449937	0.032769002318031704	-0.07444633823118696	0.5816077777415465	0.05764426305075421	-0.06851337293354987	0.5653235011432689	0.053385729141213645	-0.06540094227374638	0.5456698292870548	0.046664285772030634	-0.0623403213231678	0.5152783733196038	0.02828783365698706	-0.056051532660634784	0.46228308100186094	-0.023011742144276925	-0.051989820119430985
47	1.599999999999993	0.5219671942767439	-0.023409230250364343	-0.16125621267563484	0.5130914596632435	-0.02579294779651564	-0.1401958416976372	0.4977175350931266	-0.030235325877377983	-0.11349888081631165	0.48290885543589424	-0.02618356414517109	-0.07161599369430327	0.5893572991819718	0.032649768655873435	-0.13885490271127565	0.5718579571000959	0.030599530974224853	-0.13466329775013774	0.5477038047274165	0.027842237785046242	-0.12826141596223373	0.5120798119561717	0.013560555801288787	-0.10980604295735719	0.5958649396867903	0.049380660457489234	-0.11371785376476373	0.5778134304956303	0.04891208837024896	-0.11233096655935682	0.5490163993275944	0.04719347040787758	-0.10818525815106406	0.5124233301815369	0.0270769160640133	-0.09229754425628955	0.5906500008953032	0.056293270022886976	-0.09326730594340871	0.5728270928815486	0.05492684679818849	-0.09092704153436171	0.5484026720080322	0.05191885422499953	-0.08710871406373144	0.5150775446819109	0.0328622505342584	-0.07442003491766391	0.5817191120458782	0.05727046648351308	-0.06827220500930842	0.5653751311436837	0.05320914284326195	-0.06520953647389194	0.5456354149295227	0.04671164537402073	-0.06221986267536439	0.5152025333735026	0.028367021381386248	-0.05603941432867365	0.4622830810018609	-0.023011742144276925	-0.051989820119430985
